<?xml version="1.0" encoding="UTF-8" standalone="no" ?>
<!DOCTYPE svg PUBLIC "-//W3C//DTD SVG 1.1//EN" "http://www.w3.org/Graphics/SVG/1.1/DTD/svg11.dtd">
<svg xmlns="http://www.w3.org/2000/svg" xmlns:xlink="http://www.w3.org/1999/xlink" version="1.1" width="1080" height="1080" viewBox="0 0 1080 1080" xml:space="preserve">
    <desc>Created with Fabric.js 5.2.4</desc>
    <defs>
    </defs>
    <rect x="0" y="0" width="100%" height="100%" fill="transparent"></rect>
    <g transform="matrix(1 0 0 1 540 540)" id="efb57d56-5f2b-4e63-b500-24b830845882"  >
    <rect style="stroke: none; stroke-width: 1; stroke-dasharray: none; stroke-linecap: butt; stroke-dashoffset: 0; stroke-linejoin: miter; stroke-miterlimit: 4; fill: rgb(255,255,255); fill-rule: nonzero; opacity: 1; visibility: hidden;" vector-effect="non-scaling-stroke"  x="-540" y="-540" rx="0" ry="0" width="1080" height="1080" />
    </g>
    <g transform="matrix(1 0 0 1 540 540)" id="7f81a368-127a-41f3-bc6e-5363ccbbfffd"  >
    </g>
    <g transform="matrix(4.24 1.52 -1.46 4.06 515.09 540)" id="569a43c1-bea9-4ace-910b-b26d88bdae42"  >
    <path style="stroke: rgb(255,255,255); stroke-width: 0; stroke-dasharray: none; stroke-linecap: butt; stroke-dashoffset: 0; stroke-linejoin: miter; stroke-miterlimit: 4; fill: rgb(255,255,255); fill-rule: nonzero; opacity: 1;" vector-effect="non-scaling-stroke"  transform=" translate(-82.42, -121.49)" d="M 158.8 0.4 C 151.60000000000002 4.4 144.9 9.3 137.5 13 C 130.7 17 121.5 21.8 118.6 29.3 C 119 33.3 123.8 34.6 126.5 37 C 129.1 38.9 131.7 40.7 134.5 42.4 C 132.8 44.699999999999996 131.6 47.9 130 49.5 C 124.7 57.8 119.6 66.2 114.5 74.6 C 101.7 96.5 88.7 117.69999999999999 74.7 138.8 C 74.3 138.9 73.9 139.10000000000002 73.60000000000001 139.4 C 60.20000000000001 145.5 46.50000000000001 150.8 32.70000000000001 155.9 C 28.60000000000001 157.20000000000002 24.10000000000001 158.5 22.20000000000001 162.70000000000002 C 15.30000000000001 174.00000000000003 9.70000000000001 186.00000000000003 4.20000000000001 198.10000000000002 C 2.40000000000001 202.3 -3.8999999999999897 210.60000000000002 3.80000000000001 212.20000000000002 C 8.70000000000001 212.10000000000002 13.000000000000009 209.20000000000002 17.50000000000001 207.50000000000003 C 25.900000000000013 203.90000000000003 34.70000000000001 201.30000000000004 43.500000000000014 198.50000000000003 C 43.500000000000014 200.90000000000003 43.500000000000014 203.30000000000004 43.500000000000014 205.60000000000002 C 43.500000000000014 212.20000000000002 43.90000000000001 218.90000000000003 44.30000000000001 225.50000000000003 C 45.500000000000014 230.40000000000003 42.000000000000014 241.70000000000002 48.40000000000001 243.00000000000003 C 53.90000000000001 242.60000000000002 56.70000000000002 236.20000000000002 60.500000000000014 232.70000000000002 C 68.70000000000002 223.50000000000003 76.20000000000002 213.70000000000002 83.4 203.8 C 87.2 200.20000000000002 85.10000000000001 195.20000000000002 84.80000000000001 190.70000000000002 C 84.30000000000001 180.3 85.10000000000001 169.8 83.9 159.4 C 83.60000000000001 155.4 83.30000000000001 151.3 83.10000000000001 147.3 C 82.7 145.3 83.50000000000001 143 81.9 141.3 C 81.80000000000001 141.20000000000002 81.7 141.10000000000002 81.60000000000001 141 C 97.30000000000001 117.3 111.70000000000002 92.9 126.30000000000001 68.5 C 129.8 62.7 133.4 56.9 137.10000000000002 51.3 C 137.90000000000003 49.699999999999996 139.70000000000002 47.699999999999996 140.8 45.8 C 145 48 149.4 50 153.8 51.699999999999996 C 157.3 52.9 160.3 49.8 160.4 46.4 C 161.1 40.5 161.6 34.599999999999994 162.3 28.7 C 163.20000000000002 20.799999999999997 164.10000000000002 12.899999999999999 164.70000000000002 5 C 165.3 2 162.1 -1.2 158.8 0.4 L 158.8 0.4 z M 28.7 165.7 C 29.9 163.7 32.7 163.7 34.7 162.79999999999998 C 44.7 159.1 54.6 155.29999999999998 64.4 151.29999999999998 C 65.4 150.79999999999998 66.30000000000001 150.39999999999998 67.30000000000001 149.99999999999997 C 66.10000000000001 151.69999999999996 65.00000000000001 153.39999999999998 63.80000000000001 155.09999999999997 C 54.20000000000001 158.39999999999998 44.40000000000001 161.19999999999996 34.80000000000001 164.59999999999997 C 32.500000000000014 165.49999999999997 30.100000000000012 166.29999999999995 27.80000000000001 167.19999999999996 C 28.1 166.6 28.4 166.1 28.7 165.7 L 28.7 165.7 z M 25.3 171.3 C 25.7 171.4 26.1 171.4 26.5 171.3 C 28.6 170.5 30.8 169.70000000000002 32.9 169 C 38.199999999999996 167 43.5 165.2 48.9 163.6 C 52.9 162.4 56.9 161.1 60.8 159.79999999999998 C 59.8 161.39999999999998 58.8 162.99999999999997 57.8 164.6 C 57.699999999999996 164.6 57.599999999999994 164.7 57.4 164.7 C 52.3 165.7 47.3 167.5 42.3 168.89999999999998 C 35.9 170.79999999999998 29.4 172.7 23.199999999999996 175.09999999999997 C 23.9 173.7 24.6 172.5 25.3 171.3 L 25.3 171.3 z M 21.2 179 C 21.599999999999998 179.2 22.2 179.2 22.599999999999998 179 C 24.7 178.1 26.799999999999997 177.3 29 176.6 C 37.8 173.9 46.5 170.9 55.4 168.6 C 53.9 171.1 52.5 173.6 51 176.2 C 44.9 177.2 38.9 179.29999999999998 32.8 180.89999999999998 C 27.699999999999996 182.49999999999997 22.599999999999998 184.2 17.599999999999998 185.99999999999997 C 18.8 183.7 19.9 181.3 21.2 179 L 21.2 179 z M 42.4 191.7 C 31.2 195.2 20 198.7 9.299999999999997 203.6 C 10.199999999999998 201.7 11.099999999999998 199.7 11.999999999999996 197.79999999999998 C 12.099999999999996 197.79999999999998 12.099999999999996 197.79999999999998 12.199999999999996 197.79999999999998 C 15.399999999999995 196.79999999999998 18.699999999999996 195.89999999999998 21.899999999999995 194.99999999999997 C 28.899999999999995 193.19999999999996 35.99999999999999 191.39999999999998 43.099999999999994 189.99999999999997 C 42.8 190.6 42.5 191.2 42.4 191.7 L 42.4 191.7 z M 46.9 183.5 C 46.6 184.3 46.1 185.1 45.6 186 C 45 186 44.4 186.2 43.800000000000004 186.3 C 40.00000000000001 187 36.300000000000004 187.9 32.5 188.8 C 26.3 190.3 20.1 191.9 13.899999999999999 193.70000000000002 C 14.399999999999999 192.70000000000002 14.899999999999999 191.60000000000002 15.399999999999999 190.60000000000002 C 18.7 189.40000000000003 22 188.20000000000002 25.299999999999997 187.10000000000002 C 33 184.60000000000002 40.8 182.10000000000002 48.699999999999996 180.3 C 48.1 181.3 47.5 182.4 46.9 183.5 L 46.9 183.5 z M 51.4 232.6 C 51.1 221.79999999999998 50.199999999999996 211.1 50.4 200.3 C 50.9 201.70000000000002 51.3 203.10000000000002 51.8 204.60000000000002 C 54.099999999999994 211.40000000000003 55.8 218.40000000000003 57.599999999999994 225.3 C 57.599999999999994 225.4 57.699999999999996 225.5 57.699999999999996 225.60000000000002 C 55.6 228 53.5 230.3 51.4 232.6 L 51.4 232.6 z M 60.4 222.3 C 59.5 219 58.699999999999996 215.60000000000002 57.8 212.3 C 55.9 205.20000000000002 53 198.4 51.5 191.20000000000002 C 51.6 190.70000000000002 51.5 190.4 51.3 190.00000000000003 C 52.099999999999994 188.30000000000004 52.9 186.60000000000002 53.699999999999996 185.40000000000003 C 54.49999999999999 190.00000000000003 56.199999999999996 194.60000000000002 57.8 199.00000000000003 C 59.8 205.30000000000004 61.599999999999994 211.70000000000002 63.699999999999996 218.00000000000003 C 62.7 219.5 61.6 220.9 60.4 222.3 L 60.4 222.3 z M 66.4 214.9 C 66.2 214.4 66.10000000000001 214 66 213.5 C 64.2 208.2 62.8 202.7 61 197.4 C 59.2 192.4 57.3 187.6 56.9 182.20000000000002 C 56.9 181.60000000000002 56.8 181.20000000000002 56.5 180.9 C 57.7 178.8 58.8 176.8 60 174.70000000000002 C 60.1 175.20000000000002 60.2 175.60000000000002 60.3 176.10000000000002 C 61.4 181.60000000000002 63 186.90000000000003 64.6 192.20000000000002 C 66.39999999999999 198.3 68.19999999999999 204.50000000000003 69.89999999999999 210.60000000000002 C 68.7 212 67.6 213.5 66.4 214.9 L 66.4 214.9 z M 72.5 207.1 C 71.5 203.6 70.5 200 69.5 196.5 C 67.2 188 64.1 179.9 63.1 171.1 C 63.2 170.6 63.2 170.1 62.9 169.79999999999998 C 64.1 167.79999999999998 65.3 165.79999999999998 66.5 163.79999999999998 C 66.5 163.79999999999998 66.5 163.79999999999998 66.5 163.79999999999998 C 67.1 167.39999999999998 67.5 170.99999999999997 68 174.6 C 69.6 184.4 72.2 193.9 75.2 203.29999999999998 C 74.3 204.6 73.4 205.9 72.5 207.1 L 72.5 207.1 z M 77.8 199.9 C 76.8 196.5 75.8 193.20000000000002 74.89999999999999 189.8 C 72.19999999999999 180.4 70.99999999999999 170.70000000000002 69.6 161.10000000000002 C 69.69999999999999 160.50000000000003 69.5 160.00000000000003 69.1 159.60000000000002 C 69.8 158.60000000000002 70.39999999999999 157.60000000000002 71.1 156.50000000000003 C 72.8 154.10000000000002 74.39999999999999 151.70000000000002 76 149.30000000000004 C 76.3 154.10000000000005 76.9 159.00000000000003 77.1 163.80000000000004 C 78.1 175.40000000000003 76.5 187.10000000000005 78.6 198.60000000000002 C 78.4 199.1 78.1 199.5 77.8 199.9 L 77.8 199.9 z" stroke-linecap="round" />
    </g>
</svg>